<mxfile host="app.diagrams.net" modified="2023-10-13T11:31:35.126Z" agent="Mozilla/5.0 (Windows NT 10.0; Win64; x64) AppleWebKit/537.36 (KHTML, like Gecko) Chrome/117.0.0.0 Safari/537.36" version="22.0.4" etag="RC1jY2gkw5kpvy7Oq93a" type="github">
  <diagram name="PÃ¡gina-1" id="j1lHDY4seS8H5H4-TO-w">
    <mxGraphModel>
      <root>
        <mxCell id="0" />
        <mxCell id="1" parent="0" />
      </root>
    </mxGraphModel>
  </diagram>
</mxfile>
